<svg width="30" height="30" viewBox="0 0 30 30" fill="none" xmlns="http://www.w3.org/2000/svg">
<g clip-path="url(#clip0_1000_5222)">
<path d="M20 28.75C20 29.44 19.4413 30 18.75 30H7.5C4.05375 30 1.25 27.1963 1.25 23.75V6.25C1.25 2.80375 4.05375 0 7.5 0H13.1438C15.48 0 17.6775 0.91 19.3313 2.5625L23.6863 6.92C24.025 7.25875 24.34 7.63 24.6213 8.02375C25.0225 8.585 24.8925 9.36625 24.3313 9.7675C23.77 10.1675 22.9875 10.0387 22.5875 9.47625C22.3863 9.195 22.1613 8.92875 21.92 8.68875L17.5638 4.33125C17.1663 3.93375 16.725 3.5975 16.25 3.325V8.75C16.25 9.43875 16.81 10 17.5 10H21.25C21.9413 10 22.5 10.56 22.5 11.25C22.5 11.94 21.9413 12.5 21.25 12.5H17.5C15.4325 12.5 13.75 10.8175 13.75 8.75V2.52875C13.55 2.51 13.3475 2.5 13.1438 2.5H7.5C5.4325 2.5 3.75 4.1825 3.75 6.25V23.75C3.75 25.8175 5.4325 27.5 7.5 27.5H18.75C19.4413 27.5 20 28.06 20 28.75ZM27.1063 20.3337L23.305 19.7C22.8388 19.6225 22.5 19.2225 22.5 18.75C22.5 18.0613 23.06 17.5 23.75 17.5H26.585C27.03 17.5 27.445 17.74 27.6688 18.125C28.0125 18.7225 28.775 18.9263 29.3763 18.5812C29.9738 18.235 30.1788 17.4712 29.8313 16.8737C29.1638 15.7175 27.9188 14.9987 26.5838 14.9987H26.2488V13.7487C26.2488 13.0587 25.69 12.4987 24.9988 12.4987C24.3075 12.4987 23.7488 13.0587 23.7488 13.7487V14.9987C21.6813 14.9987 19.9988 16.6812 19.9988 18.7487C19.9988 20.4487 21.2163 21.8862 22.8925 22.165L26.6938 22.7987C27.16 22.8763 27.4988 23.2763 27.4988 23.7488C27.4988 24.4375 26.9388 24.9988 26.2488 24.9988H23.4138C22.9688 24.9988 22.5538 24.7588 22.33 24.3738C21.9863 23.775 21.2225 23.5713 20.6225 23.9175C20.025 24.2638 19.82 25.0275 20.1675 25.625C20.835 26.7812 22.08 27.4988 23.415 27.4988H23.75V28.7488C23.75 29.4388 24.3088 29.9988 25 29.9988C25.6913 29.9988 26.25 29.4388 26.25 28.7488V27.4988C28.3175 27.4988 30 25.8162 30 23.7488C30 22.0487 28.7825 20.6125 27.1063 20.3337ZM9.375 18.75H16.25C16.9413 18.75 17.5 18.19 17.5 17.5C17.5 16.81 16.9413 16.25 16.25 16.25H9.375C7.6525 16.25 6.25 17.6525 6.25 19.375V21.875C6.25 23.5975 7.6525 25 9.375 25H16.25C16.9413 25 17.5 24.44 17.5 23.75C17.5 23.06 16.9413 22.5 16.25 22.5H9.375C9.03 22.5 8.75 22.22 8.75 21.875V19.375C8.75 19.03 9.03 18.75 9.375 18.75ZM7.5 13.75H10C10.69 13.75 11.25 13.19 11.25 12.5C11.25 11.81 10.69 11.25 10 11.25H7.5C6.81 11.25 6.25 11.81 6.25 12.5C6.25 13.19 6.81 13.75 7.5 13.75ZM7.5 8.75H10C10.69 8.75 11.25 8.19 11.25 7.5C11.25 6.81 10.69 6.25 10 6.25H7.5C6.81 6.25 6.25 6.81 6.25 7.5C6.25 8.19 6.81 8.75 7.5 8.75Z" fill="#BBBBBB"/>
</g>
<defs>
<clipPath id="clip0_1000_5222">
<rect width="30" height="30" fill="white"/>
</clipPath>
</defs>
</svg>
