<svg width="30" height="30" viewBox="0 0 30 30" fill="none" xmlns="http://www.w3.org/2000/svg">
<g clip-path="url(#clip0_1000_5235)">
<path d="M26.4437 24.6762C28.7394 21.9747 29.9998 18.5451 29.9998 14.9999C29.9998 11.4548 28.7394 8.02511 26.4437 5.32367L27.5187 4.24867C27.7531 4.01412 27.8847 3.69607 27.8846 3.36448C27.8844 3.03289 27.7526 2.71493 27.518 2.48055C27.2835 2.24616 26.9654 2.11455 26.6339 2.11467C26.3023 2.11478 25.9843 2.24662 25.7499 2.48117L24.6749 3.55617C21.9735 1.26045 18.5438 0 14.9987 0C11.4535 0 8.02386 1.26045 5.32242 3.55617L4.24742 2.48117C4.01151 2.25363 3.69566 2.12786 3.36792 2.13094C3.04017 2.13402 2.72674 2.2657 2.49515 2.49762C2.26355 2.72955 2.13231 3.04316 2.12969 3.37091C2.12708 3.69866 2.2533 4.01433 2.48117 4.24992L3.55617 5.32492C1.26045 8.02636 0 11.456 0 15.0012C0 18.5463 1.26045 21.976 3.55617 24.6774L2.48117 25.7524C2.36187 25.8678 2.26674 26.0058 2.20134 26.1584C2.13594 26.3109 2.10157 26.475 2.10025 26.6409C2.09893 26.8069 2.13067 26.9715 2.19363 27.1251C2.25659 27.2786 2.3495 27.4181 2.46695 27.5354C2.5844 27.6527 2.72403 27.7454 2.87769 27.8082C3.03135 27.8709 3.19597 27.9024 3.36195 27.9009C3.52792 27.8993 3.69192 27.8647 3.84437 27.7991C3.99683 27.7335 4.1347 27.6381 4.24992 27.5187L5.32492 26.4437C8.02636 28.7394 11.456 29.9998 15.0012 29.9998C18.5463 29.9998 21.976 28.7394 24.6774 26.4437L25.7524 27.5187C25.9883 27.7462 26.3042 27.872 26.6319 27.8689C26.9597 27.8658 27.2731 27.7341 27.5047 27.5022C27.7363 27.2703 27.8675 26.9567 27.8701 26.6289C27.8728 26.3012 27.7465 25.9855 27.5187 25.7499L26.4437 24.6762ZM27.4999 14.9999C27.5022 17.883 26.5027 20.6773 24.6724 22.9049L20.2087 18.4412C20.8876 17.4219 21.2499 16.2246 21.2499 14.9999C21.2499 13.7752 20.8876 12.5779 20.2087 11.5587L24.6724 7.09492C26.5027 9.32251 27.5022 12.1168 27.4999 14.9999ZM11.2499 14.9999C11.2499 14.2582 11.4699 13.5332 11.8819 12.9165C12.294 12.2998 12.8796 11.8192 13.5649 11.5354C14.2501 11.2515 15.0041 11.1773 15.7315 11.322C16.4589 11.4667 17.1271 11.8238 17.6516 12.3483C18.176 12.8727 18.5332 13.5409 18.6779 14.2683C18.8226 14.9958 18.7483 15.7498 18.4645 16.435C18.1806 17.1202 17.7 17.7059 17.0833 18.1179C16.4666 18.53 15.7416 18.7499 14.9999 18.7499C14.0054 18.7499 13.0515 18.3548 12.3483 17.6516C11.645 16.9483 11.2499 15.9945 11.2499 14.9999ZM14.9999 2.49992C17.883 2.49762 20.6773 3.49711 22.9049 5.32742L18.4412 9.79117C17.4219 9.11225 16.2246 8.74999 14.9999 8.74999C13.7752 8.74999 12.5779 9.11225 11.5587 9.79117L7.09492 5.32742C9.32251 3.49711 12.1168 2.49762 14.9999 2.49992ZM2.49992 14.9999C2.49762 12.1168 3.49711 9.32251 5.32742 7.09492L9.79117 11.5587C9.11225 12.5779 8.74999 13.7752 8.74999 14.9999C8.74999 16.2246 9.11225 17.4219 9.79117 18.4412L5.32742 22.9049C3.49711 20.6773 2.49762 17.883 2.49992 14.9999ZM14.9999 27.4999C12.1168 27.5022 9.32251 26.5027 7.09492 24.6724L11.5587 20.2087C12.5779 20.8876 13.7752 21.2499 14.9999 21.2499C16.2246 21.2499 17.4219 20.8876 18.4412 20.2087L22.9049 24.6724C20.6773 26.5027 17.883 27.5022 14.9999 27.4999Z" fill="#BBBBBB"/>
</g>
<defs>
<clipPath id="clip0_1000_5235">
<rect width="30" height="30" fill="white"/>
</clipPath>
</defs>
</svg>
