<svg width="30" height="30" viewBox="0 0 30 30" fill="none" xmlns="http://www.w3.org/2000/svg">
<g clip-path="url(#clip0_1000_5213)">
<path d="M28.75 27.5H6.25C5.25544 27.5 4.30161 27.1049 3.59835 26.4017C2.89509 25.6984 2.5 24.7446 2.5 23.75V1.25C2.5 0.918479 2.3683 0.600537 2.13388 0.366117C1.89946 0.131696 1.58152 0 1.25 0C0.918479 0 0.600537 0.131696 0.366117 0.366117C0.131696 0.600537 0 0.918479 0 1.25L0 23.75C0.00198482 25.407 0.661102 26.9956 1.83277 28.1672C3.00445 29.3389 4.59301 29.998 6.25 30H28.75C29.0815 30 29.3995 29.8683 29.6339 29.6339C29.8683 29.3995 30 29.0815 30 28.75C30 28.4185 29.8683 28.1005 29.6339 27.8661C29.3995 27.6317 29.0815 27.5 28.75 27.5Z" fill="#BBBBBB"/>
<path d="M7.5 25C7.83152 25 8.14946 24.8683 8.38388 24.6339C8.6183 24.3995 8.75 24.0815 8.75 23.75V15C8.75 14.6685 8.6183 14.3505 8.38388 14.1161C8.14946 13.8817 7.83152 13.75 7.5 13.75C7.16848 13.75 6.85054 13.8817 6.61612 14.1161C6.3817 14.3505 6.25 14.6685 6.25 15V23.75C6.25 24.0815 6.3817 24.3995 6.61612 24.6339C6.85054 24.8683 7.16848 25 7.5 25Z" fill="#BBBBBB"/>
<path d="M12.5 12.5V23.75C12.5 24.0815 12.6317 24.3995 12.8661 24.6339C13.1005 24.8683 13.4185 25 13.75 25C14.0815 25 14.3995 24.8683 14.6339 24.6339C14.8683 24.3995 15 24.0815 15 23.75V12.5C15 12.1685 14.8683 11.8505 14.6339 11.6161C14.3995 11.3817 14.0815 11.25 13.75 11.25C13.4185 11.25 13.1005 11.3817 12.8661 11.6161C12.6317 11.8505 12.5 12.1685 12.5 12.5Z" fill="#BBBBBB"/>
<path d="M18.75 16.25V23.75C18.75 24.0815 18.8817 24.3995 19.1161 24.6339C19.3505 24.8683 19.6685 25 20 25C20.3315 25 20.6495 24.8683 20.8839 24.6339C21.1183 24.3995 21.25 24.0815 21.25 23.75V16.25C21.25 15.9185 21.1183 15.6005 20.8839 15.3661C20.6495 15.1317 20.3315 15 20 15C19.6685 15 19.3505 15.1317 19.1161 15.3661C18.8817 15.6005 18.75 15.9185 18.75 16.25Z" fill="#BBBBBB"/>
<path d="M25 11.25V23.75C25 24.0815 25.1317 24.3995 25.3661 24.6339C25.6005 24.8683 25.9185 25 26.25 25C26.5815 25 26.8995 24.8683 27.1339 24.6339C27.3683 24.3995 27.5 24.0815 27.5 23.75V11.25C27.5 10.9185 27.3683 10.6005 27.1339 10.3661C26.8995 10.1317 26.5815 10 26.25 10C25.9185 10 25.6005 10.1317 25.3661 10.3661C25.1317 10.6005 25 10.9185 25 11.25Z" fill="#BBBBBB"/>
<path d="M7.49998 11.2498C7.83147 11.2497 8.14936 11.118 8.38373 10.8835L12.8662 6.40103C13.1045 6.17406 13.4209 6.04745 13.75 6.04745C14.079 6.04745 14.3955 6.17406 14.6337 6.40103L17.3487 9.11603C18.052 9.81904 19.0056 10.214 20 10.214C20.9943 10.214 21.948 9.81904 22.6512 9.11603L29.6337 2.13353C29.8614 1.89777 29.9874 1.58202 29.9846 1.25427C29.9817 0.926529 29.8503 0.613013 29.6185 0.381253C29.3867 0.149493 29.0732 0.018032 28.7455 0.015184C28.4177 0.0123359 28.102 0.138329 27.8662 0.366027L20.8837 7.34728C20.6493 7.58161 20.3314 7.71326 20 7.71326C19.6685 7.71326 19.3506 7.58161 19.1162 7.34728L16.4012 4.63353C15.698 3.93051 14.7443 3.53558 13.75 3.53558C12.7556 3.53558 11.802 3.93051 11.0987 4.63353L6.61623 9.11603C6.44147 9.29084 6.32246 9.51355 6.27425 9.75599C6.22604 9.99843 6.25079 10.2497 6.34538 10.4781C6.43997 10.7065 6.60014 10.9017 6.80565 11.039C7.01117 11.1764 7.25279 11.2497 7.49998 11.2498Z" fill="#BBBBBB"/>
</g>
<defs>
<clipPath id="clip0_1000_5213">
<rect width="30" height="30" fill="white"/>
</clipPath>
</defs>
</svg>
