<svg width="194" height="84" viewBox="0 0 194 84" fill="none" xmlns="http://www.w3.org/2000/svg">
    <path d="M113.329 66.7517H105.046L91.2047 45.7389V66.6961H82.9219V32.731H91.2047L105.046 53.7994V32.731H113.329V66.7517Z" fill="black"/>
    <path d="M119.941 35.6257C118.996 34.7919 118.552 33.7357 118.552 32.4571C118.552 31.1785 118.996 30.0667 119.941 29.2329C120.887 28.3991 122.054 27.9543 123.499 27.9543C124.945 27.9543 126.112 28.3991 127.001 29.2329C127.946 30.0667 128.391 31.1785 128.391 32.4571C128.391 33.7357 127.946 34.7919 127.001 35.6257C126.056 36.4595 124.889 36.9043 123.499 36.9043C122.054 36.9043 120.887 36.4595 119.941 35.6257ZM127.613 39.6837V66.7002H119.33V39.6837H127.613Z" fill="black"/>
    <path d="M157.682 42.5188C159.572 44.5756 160.517 47.4106 160.517 50.9684V66.7558H152.29V52.0801C152.29 50.2457 151.845 48.856 150.9 47.8553C149.955 46.8547 148.676 46.3544 147.12 46.3544C145.563 46.3544 144.285 46.8547 143.34 47.8553C142.395 48.856 141.95 50.2457 141.95 52.0801V66.7558H133.667V39.6837H141.95V43.297C142.784 42.1296 143.896 41.1846 145.341 40.4619C146.786 39.7949 148.343 39.4057 150.122 39.4057C153.29 39.4057 155.792 40.4619 157.682 42.5188ZM145.119 30.2891C145.841 30.2891 146.453 30.4002 147.009 30.6226C147.565 30.845 148.176 31.1229 148.954 31.5676C149.51 31.9012 150.011 32.1235 150.344 32.2903C150.678 32.4571 151.067 32.5126 151.456 32.5126C152.623 32.5126 153.346 31.79 153.513 30.3447H157.793C157.015 35.1253 154.791 37.5157 151.122 37.5157C150.4 37.5157 149.788 37.4045 149.232 37.1822C148.676 36.9598 148.065 36.6819 147.287 36.2371C146.731 35.9036 146.23 35.6812 145.897 35.5145C145.563 35.3477 145.174 35.2921 144.785 35.2921C143.618 35.2921 142.895 36.0148 142.673 37.4601H138.448C139.226 32.6794 141.45 30.2891 145.119 30.2891Z" fill="black"/>
    <path d="M166.247 45.8508C167.303 43.7384 168.749 42.1263 170.527 41.0145C172.362 39.9027 174.363 39.2913 176.587 39.2913C178.477 39.2913 180.144 39.6804 181.59 40.4586C183.035 41.2369 184.147 42.2375 184.925 43.5161V39.6804H193.208V66.6969H184.925V62.8612C184.091 64.1398 182.98 65.1404 181.534 65.9186C180.089 66.6969 178.421 67.086 176.531 67.086C174.308 67.086 172.306 66.5301 170.527 65.3627C168.693 64.1954 167.303 62.5833 166.247 60.4709C165.191 58.3585 164.691 55.9125 164.691 53.133C164.635 50.4092 165.191 47.9632 166.247 45.8508ZM183.202 48.3523C182.034 47.185 180.645 46.5735 179.033 46.5735C177.421 46.5735 175.975 47.185 174.863 48.3523C173.696 49.5197 173.14 51.1318 173.14 53.2442C173.14 55.301 173.696 56.9687 174.863 58.1361C176.031 59.3591 177.421 59.9706 179.033 59.9706C180.645 59.9706 182.09 59.3591 183.202 58.1917C184.369 57.0243 184.925 55.3566 184.925 53.2998C184.925 51.1874 184.314 49.5197 183.202 48.3523Z" fill="black"/>
    <path d="M58.1376 15.0088L56.5811 26.2379L67.5878 22.291L72.98 18.4553L58.1376 15.0088Z" fill="#FAA41A"/>
    <path d="M44.63 78.2147C26.7858 51.4761 24.451 18.3448 44.9635 18.3448C50.4113 18.3448 54.8029 21.569 56.5817 26.2385C57.5268 24.1261 58.1382 21.8469 58.305 19.4566C59.1389 8.72779 51.0784 0.000244141 40.3496 0.000244141C15.8902 0.000244141 9.05271 48.919 20.1706 78.2147H44.63Z" fill="#383839"/>
    <path d="M56.6875 25.909C56.6319 26.0202 56.5763 26.1314 56.5207 26.2426C54.7975 21.5731 50.3503 18.3489 44.9581 18.3489C24.4456 18.3489 26.8359 51.4246 44.6246 78.2188H20.1652L6.99048 84.0001H47.9599C59.6893 58.151 63.8586 40.6403 56.6875 25.909Z" fill="#D5D7D8"/>
    <path d="M50.5205 78.2102L41.5706 83.9915H56.5797C56.5797 83.9915 55.7459 79.2108 50.5205 78.2102Z" fill="#383839"/>
    <path d="M68.8055 43.9733C69.3614 43.6954 69.5838 43.0839 69.3614 42.528V42.4724C69.139 41.8609 68.4164 41.5274 67.8049 41.8053L54.6858 47.8646C54.1855 48.087 53.574 47.8646 53.3516 47.3087L52.9069 46.1969C52.629 45.4187 53.0181 44.5848 53.7407 44.3069L66.8599 39.2482C67.4714 39.0259 67.7493 38.3588 67.5269 37.7473C67.3046 37.1358 66.6375 36.8579 66.026 37.0802L52.9069 42.1389C52.1287 42.4168 51.2948 42.0277 51.0169 41.305L50.7389 40.5824C50.5166 40.0821 50.7945 39.4706 51.3504 39.3038L65.1366 35.0234C65.7481 34.8011 66.1372 34.134 65.8593 33.5225V33.4669C65.6369 32.911 65.0254 32.5775 64.4695 32.7442C50.3498 36.8023 50.2386 36.8579 49.4048 37.1358C45.4579 38.6367 43.8458 41.6386 42.9564 44.0289C42.5117 45.2519 41.5111 46.1969 40.2881 46.6416C17.274 54.313 7.71264 56.6477 2.48723 59.3716C-1.18168 61.2617 0.986315 66.8762 4.98876 65.82C10.7701 64.3191 19.442 59.6496 41.5666 49.9214C42.734 49.4211 44.1238 49.4767 45.2911 50.0882C47.5147 51.2556 50.7389 52.4229 54.6858 50.8664C55.464 50.4773 55.742 50.3661 68.8055 43.9733Z" fill="black"/>
    <path d="M44.63 78.2147C26.7858 51.4761 24.451 18.3448 44.9635 18.3448C50.4113 18.3448 54.8029 21.569 56.5817 26.2385C57.5268 24.1261 58.1382 21.8469 58.305 19.4566C59.1389 8.72779 51.0784 0.000244141 40.3496 0.000244141C15.8902 0.000244141 9.05271 48.919 20.1706 78.2147H44.63Z" fill="#383839"/>
    <path d="M49.9504 10.6111C51.1734 10.6111 52.2296 11.0002 53.1746 11.6673C52.6743 9.72162 50.8399 8.2207 48.7275 8.2207C46.1703 8.2207 44.1135 10.2775 44.1135 12.8346C44.1135 13.6129 44.3359 14.3355 44.6694 15.0026C45.1141 12.5011 47.3377 10.6111 49.9504 10.6111Z" fill="#D5D7D8"/>
</svg>
