<svg width="30" height="30" viewBox="0 0 30 30" fill="none" xmlns="http://www.w3.org/2000/svg">
<g clip-path="url(#clip0_1000_5239)">
<path d="M14.345 18.75C14.0135 18.75 13.6955 18.8817 13.4611 19.1161C13.2267 19.3505 13.095 19.6685 13.095 20V23.75C13.095 24.7446 12.6999 25.6984 11.9967 26.4017C11.2934 27.1049 10.3396 27.5 9.345 27.5H6.25C5.25544 27.5 4.30161 27.1049 3.59835 26.4017C2.89509 25.6984 2.5 24.7446 2.5 23.75V6.25C2.5 5.25544 2.89509 4.30161 3.59835 3.59835C4.30161 2.89509 5.25544 2.5 6.25 2.5H9.345C10.3396 2.5 11.2934 2.89509 11.9967 3.59835C12.6999 4.30161 13.095 5.25544 13.095 6.25V10C13.095 10.3315 13.2267 10.6495 13.4611 10.8839C13.6955 11.1183 14.0135 11.25 14.345 11.25C14.6765 11.25 14.9945 11.1183 15.2289 10.8839C15.4633 10.6495 15.595 10.3315 15.595 10V6.25C15.593 4.59301 14.9339 3.00445 13.7622 1.83277C12.5906 0.661102 11.002 0.00198482 9.345 0H6.25C4.59301 0.00198482 3.00445 0.661102 1.83277 1.83277C0.661103 3.00445 0.00198482 4.59301 0 6.25L0 23.75C0.00198482 25.407 0.661103 26.9956 1.83277 28.1672C3.00445 29.3389 4.59301 29.998 6.25 30H9.345C11.002 29.998 12.5906 29.3389 13.7622 28.1672C14.9339 26.9956 15.593 25.407 15.595 23.75V20C15.595 19.6685 15.4633 19.3505 15.2289 19.1161C14.9945 18.8817 14.6765 18.75 14.345 18.75Z" fill="#DEDEDE"/>
<path d="M28.5838 12.349L22.8512 6.61647C22.7359 6.49709 22.598 6.40186 22.4455 6.33635C22.293 6.27084 22.129 6.23635 21.963 6.23491C21.797 6.23347 21.6324 6.2651 21.4788 6.32795C21.3252 6.3908 21.1856 6.48361 21.0683 6.60098C20.9509 6.71835 20.8581 6.85791 20.7952 7.01153C20.7324 7.16515 20.7007 7.32975 20.7022 7.49573C20.7036 7.6617 20.7381 7.82572 20.8036 7.97823C20.8691 8.13073 20.9644 8.26866 21.0838 8.38397L26.4112 13.7127L7.5 13.7502C7.16848 13.7502 6.85054 13.8819 6.61612 14.1163C6.3817 14.3508 6.25 14.6687 6.25 15.0002C6.25 15.3317 6.3817 15.6497 6.61612 15.8841C6.85054 16.1185 7.16848 16.2502 7.5 16.2502L26.485 16.2115L21.0812 21.6165C20.9619 21.7318 20.8666 21.8697 20.8011 22.0222C20.7356 22.1747 20.7011 22.3387 20.6997 22.5047C20.6982 22.6707 20.7299 22.8353 20.7927 22.9889C20.8556 23.1425 20.9484 23.2821 21.0658 23.3995C21.1831 23.5168 21.3227 23.6096 21.4763 23.6725C21.6299 23.7354 21.7945 23.767 21.9605 23.7655C22.1265 23.7641 22.2905 23.7296 22.443 23.6641C22.5955 23.5986 22.7334 23.5034 22.8487 23.384L28.5812 17.6515C29.2846 16.9486 29.68 15.9951 29.6805 15.0007C29.6809 14.0064 29.2864 13.0525 28.5838 12.349Z" fill="#DEDEDE"/>
</g>
<defs>
<clipPath id="clip0_1000_5239">
<rect width="30" height="30" fill="white"/>
</clipPath>
</defs>
</svg>
